<svg viewBox="0 0 400 121" xmlns="http://www.w3.org/2000/svg"><g stroke-linecap="round" fill-rule="evenodd" stroke-width="4px" fill="#FFCB05" stroke="#2B448E"><path d="M 39.6 67.578 L 48.389 98.389 L 35.596 107.617 L 13.184 43.604 A 0.129 0.129 0 0 0 13.125 43.633 Q 12.937 43.77 12.256 44.531 Q 11.513 45.361 10.361 46.64 A 1592.854 1592.854 0 0 1 10.083 46.948 A 257.753 257.753 0 0 1 9.615 47.466 Q 8.75 48.42 8.447 48.731 A 6.007 6.007 0 0 1 8.398 48.779 Q 8.252 48.779 7.446 46.68 Q 6.641 44.58 5.298 40.845 A 909.129 909.129 0 0 0 3.87 36.902 A 1233.268 1233.268 0 0 0 2.271 32.544 A 265.271 265.271 0 0 0 1.677 30.951 Q 0.521 27.878 0.037 26.881 A 7.236 7.236 0 0 0 0 26.807 A 1260.458 1260.458 0 0 1 5.731 24.927 A 1035.812 1035.812 0 0 1 11.108 23.193 A 197.152 197.152 0 0 1 19.225 20.799 A 224.266 224.266 0 0 1 22.07 20.044 Q 27.832 18.555 33.105 17.676 A 49.825 49.825 0 0 1 41.406 16.992 Q 47.494 16.992 49.972 17.281 A 12.16 12.16 0 0 1 50.684 17.383 A 25.547 25.547 0 0 1 56.958 19.434 Q 59.912 20.85 62.231 23.218 Q 64.551 25.586 66.016 28.809 A 6.777 6.777 0 0 1 66.602 31.592 A 13.122 13.122 0 0 1 65.927 35.553 Q 64.792 39.123 61.748 43.504 A 56.106 56.106 0 0 1 60.62 45.068 A 137.643 137.643 0 0 1 53.922 53.375 A 107.422 107.422 0 0 1 48.608 59.033 Q 42.803 64.768 39.826 67.38 A 61.24 61.24 0 0 1 39.6 67.578 Z M 31.592 40.381 L 35.596 54.785 A 91.955 91.955 0 0 0 37.631 52.643 Q 39.95 50.129 42.917 46.621 A 290.687 290.687 0 0 0 43.115 46.387 Q 47.607 41.064 47.607 38.672 A 1.645 1.645 0 0 0 47.565 38.28 Q 47.436 37.759 46.926 37.621 A 1.284 1.284 0 0 0 46.826 37.598 A 19.987 19.987 0 0 0 42.48 37.109 Q 36.035 37.109 31.592 40.381 Z"/><path d="M 103.271 51.514 Q 106.738 53.369 108.911 56.519 A 21.753 21.753 0 0 1 112.005 63.293 A 24.6 24.6 0 0 1 112.085 63.599 Q 113.086 67.529 113.086 71.777 A 40.276 40.276 0 0 1 112.592 78.155 A 37.211 37.211 0 0 1 112.524 78.564 A 38.816 38.816 0 0 1 111.673 82.398 A 31.761 31.761 0 0 1 110.986 84.57 A 24.115 24.115 0 0 1 110.066 86.804 Q 109.512 87.971 108.875 88.937 A 14.56 14.56 0 0 1 108.691 89.209 A 50.147 50.147 0 0 1 104.884 94.212 A 41.08 41.08 0 0 1 102.1 97.119 Q 98.584 100.439 94.922 102.466 A 34.17 34.17 0 0 1 90.373 104.579 A 28.613 28.613 0 0 1 87.671 105.444 Q 84.082 106.396 80.566 106.396 Q 76.416 106.396 72.681 105.103 A 24.006 24.006 0 0 1 69.022 103.5 A 18.858 18.858 0 0 1 66.309 101.709 A 21.975 21.975 0 0 1 61.425 95.884 A 28.556 28.556 0 0 1 59.521 91.968 A 34.702 34.702 0 0 1 57.08 79.004 A 33.207 33.207 0 0 1 58.075 70.66 A 24.108 24.108 0 0 1 63.867 60.01 Q 69.678 53.809 75.879 50.659 A 28.577 28.577 0 0 1 84.944 47.759 A 26.493 26.493 0 0 1 88.574 47.51 A 27.895 27.895 0 0 1 95.898 48.462 A 30.189 30.189 0 0 1 99.846 49.847 A 40.069 40.069 0 0 1 103.271 51.514 Z M 100.391 59.717 Q 99.561 63.428 96.802 66.26 A 13.115 13.115 0 0 1 95.217 67.66 Q 94.313 68.329 93.423 68.685 A 5.398 5.398 0 0 1 91.406 69.092 A 4.325 4.325 0 0 1 89.89 68.831 A 3.989 3.989 0 0 1 89.063 68.408 Q 87.961 67.527 87.688 65.651 A 9.356 9.356 0 0 1 87.598 64.307 A 7.214 7.214 0 0 1 88.27 61.31 A 9.723 9.723 0 0 1 89.087 59.863 Q 90.444 57.861 93.241 56.629 A 15.252 15.252 0 0 1 93.799 56.396 A 16.382 16.382 0 0 0 87.573 57.617 A 18.766 18.766 0 0 0 84.231 59.368 A 15.842 15.842 0 0 0 82.422 60.767 A 15.913 15.913 0 0 0 78.979 65.112 A 11.162 11.162 0 0 0 77.951 67.763 A 9.383 9.383 0 0 0 77.686 69.971 Q 77.686 74.512 81.885 77.197 Q 85.791 79.688 89.307 79.688 Q 92.773 79.688 95.459 77.368 Q 98.145 75.049 99.561 71.411 A 20.663 20.663 0 0 0 100.831 66.5 A 18.25 18.25 0 0 0 100.977 64.209 A 17.755 17.755 0 0 0 100.771 61.456 A 14.515 14.515 0 0 0 100.391 59.717 Z"/><path d="M 102.588 34.814 L 104.98 22.803 L 129.785 12.402 L 133.398 68.799 L 153.809 57.617 L 175 60.791 L 147.363 81.982 L 173.389 101.611 L 174.561 121 L 136.182 93.604 L 137.402 117.578 L 114.16 118.018 L 109.766 33.203 L 102.588 34.814 Z"/><path d="M 208.984 77.393 L 220.752 91.602 A 11.332 11.332 0 0 1 218.696 95.149 Q 216.956 97.239 214.038 99.121 A 39.609 39.609 0 0 1 207.445 102.511 A 52.349 52.349 0 0 1 201.44 104.517 A 55.534 55.534 0 0 1 186.865 106.494 A 41.593 41.593 0 0 1 180.858 106.08 A 31.179 31.179 0 0 1 175.366 104.785 A 19.687 19.687 0 0 1 171.515 103.03 A 14.401 14.401 0 0 1 167.578 99.609 A 21.252 21.252 0 0 1 163.453 90.614 A 30.26 30.26 0 0 1 162.842 84.375 Q 162.842 77.051 165.503 69.946 A 51.252 51.252 0 0 1 167.025 66.288 Q 168.661 62.776 170.41 60.776 A 11.533 11.533 0 0 1 171.143 60.01 A 36.224 36.224 0 0 1 178.882 54.395 Q 183.057 52.148 187.549 51.025 A 37.905 37.905 0 0 1 196.777 49.902 Q 202.979 49.902 208.569 51.88 Q 214.16 53.857 218.359 57.617 L 191.553 89.6 Q 195.117 89.6 198.315 88.11 Q 201.514 86.621 204.199 83.862 A 30.126 30.126 0 0 0 207.896 79.192 A 35.456 35.456 0 0 0 208.984 77.393 Z M 180.469 84.57 L 195.459 66.016 A 11.053 11.053 0 0 0 192.161 64.92 A 10.079 10.079 0 0 0 190.576 64.795 A 12.649 12.649 0 0 0 185.474 65.869 A 12.624 12.624 0 0 0 184.073 66.579 Q 182.687 67.401 181.982 68.408 Q 178.955 72.314 178.955 77.002 A 15.46 15.46 0 0 0 179.216 79.877 A 14.131 14.131 0 0 0 179.297 80.273 A 29.816 29.816 0 0 0 179.498 81.128 Q 179.846 82.52 180.469 84.57 Z"/><path d="M 246.387 47.607 L 245.947 9.18 L 266.357 0 L 267.578 66.113 A 31.987 31.987 0 0 1 267.865 68.733 Q 267.956 70.028 267.967 71.462 A 52.09 52.09 0 0 1 267.969 71.875 Q 267.969 74.119 267.846 75.443 A 12.904 12.904 0 0 1 267.773 76.074 L 268.359 106.006 L 246.387 107.178 L 246.387 104.199 Q 241.016 106.396 235.547 106.396 A 24.652 24.652 0 0 1 229.328 105.629 A 22.433 22.433 0 0 1 227.661 105.127 A 22.851 22.851 0 0 1 223.642 103.313 A 18.982 18.982 0 0 1 221.289 101.709 A 21.975 21.975 0 0 1 216.405 95.884 A 28.556 28.556 0 0 1 214.502 91.968 A 34.702 34.702 0 0 1 212.061 79.004 A 33.207 33.207 0 0 1 213.055 70.66 A 24.108 24.108 0 0 1 218.848 60.01 A 53.071 53.071 0 0 1 224.61 54.748 A 39.373 39.373 0 0 1 230.933 50.684 A 28.739 28.739 0 0 1 239.62 47.82 A 26.334 26.334 0 0 1 243.652 47.51 A 55.324 55.324 0 0 1 244.501 47.516 Q 245.319 47.528 245.904 47.567 A 12.515 12.515 0 0 1 246.387 47.607 Z M 246.387 79.492 L 246.387 69.092 A 4.325 4.325 0 0 1 244.871 68.831 A 3.989 3.989 0 0 1 244.043 68.408 A 3.234 3.234 0 0 1 243.123 67.167 Q 242.578 65.941 242.578 63.916 Q 242.578 59.201 246.276 56.667 A 10.429 10.429 0 0 1 246.387 56.592 A 15.274 15.274 0 0 0 241.989 57.861 A 17.817 17.817 0 0 0 241.089 58.301 A 19.452 19.452 0 0 0 238.119 60.201 A 16.395 16.395 0 0 0 236.621 61.523 A 14.77 14.77 0 0 0 234.1 64.848 A 13.689 13.689 0 0 0 233.716 65.601 A 11.292 11.292 0 0 0 232.897 67.94 A 9.208 9.208 0 0 0 232.666 69.971 A 7.985 7.985 0 0 0 235.546 76.191 A 12.06 12.06 0 0 0 236.865 77.197 A 15.698 15.698 0 0 0 240.219 78.932 A 12.064 12.064 0 0 0 244.385 79.687 A 7.603 7.603 0 0 0 244.895 79.668 Q 245.514 79.626 246.387 79.492 Z"/><path d="M 308.984 77.393 L 320.752 91.602 A 11.332 11.332 0 0 1 318.696 95.149 Q 316.956 97.239 314.038 99.121 A 39.609 39.609 0 0 1 307.445 102.511 A 52.349 52.349 0 0 1 301.44 104.517 A 55.534 55.534 0 0 1 286.865 106.494 A 41.593 41.593 0 0 1 280.858 106.08 A 31.179 31.179 0 0 1 275.366 104.785 A 19.687 19.687 0 0 1 271.515 103.03 A 14.401 14.401 0 0 1 267.578 99.609 A 21.252 21.252 0 0 1 263.453 90.614 A 30.26 30.26 0 0 1 262.842 84.375 Q 262.842 77.051 265.503 69.946 A 51.252 51.252 0 0 1 267.025 66.288 Q 268.661 62.776 270.41 60.776 A 11.533 11.533 0 0 1 271.143 60.01 A 36.224 36.224 0 0 1 278.882 54.395 Q 283.057 52.148 287.549 51.025 A 37.905 37.905 0 0 1 296.777 49.902 Q 302.979 49.902 308.569 51.88 Q 314.16 53.857 318.359 57.617 L 291.553 89.6 Q 295.117 89.6 298.315 88.11 Q 301.514 86.621 304.199 83.862 A 30.126 30.126 0 0 0 307.896 79.192 A 35.456 35.456 0 0 0 308.984 77.393 Z M 280.469 84.57 L 295.459 66.016 A 11.053 11.053 0 0 0 292.161 64.92 A 10.079 10.079 0 0 0 290.576 64.795 A 12.649 12.649 0 0 0 285.474 65.869 A 12.624 12.624 0 0 0 284.073 66.579 Q 282.687 67.401 281.982 68.408 Q 278.955 72.314 278.955 77.002 A 15.46 15.46 0 0 0 279.216 79.877 A 14.131 14.131 0 0 0 279.297 80.273 A 29.816 29.816 0 0 0 279.498 81.128 Q 279.846 82.52 280.469 84.57 Z"/><path d="M 360.742 110.4 L 348.975 95.117 L 337.158 110.4 L 311.963 111.182 L 336.377 78.906 L 308.789 43.213 L 335.547 44.385 L 348.975 62.109 L 362.354 44.385 L 389 43.213 L 361.572 78.906 L 385.986 111.182 L 360.742 110.4 Z"/></g></svg>